<svg width="24" height="20" viewBox="0 0 24 20" fill="none" xmlns="http://www.w3.org/2000/svg">
<path d="M19.112 8.5C18.9526 8.5 18.4187 8.50469 18.2682 8.51406L15.2261 8.59375C15.2102 8.59472 15.1945 8.59129 15.1805 8.58384C15.1665 8.5764 15.1549 8.56522 15.1468 8.55156L9.07278 1.16687C9.03593 1.11811 8.98894 1.07792 8.93503 1.04911C8.88113 1.0203 8.82161 1.00354 8.76059 1H7.50012L10.922 8.54688C10.9302 8.56415 10.9337 8.58325 10.9322 8.6023C10.9308 8.62135 10.9244 8.6397 10.9137 8.65554C10.903 8.67138 10.8884 8.68416 10.8713 8.69264C10.8542 8.70112 10.8351 8.70501 10.8161 8.70391L5.11184 8.78828C5.05248 8.79008 4.99353 8.77786 4.93978 8.75261C4.88603 8.72736 4.83898 8.6898 4.80246 8.64297L3.06809 6.53359C2.92746 6.35078 2.66403 6.25234 2.43481 6.25234H1.55075C1.49028 6.25234 1.49918 6.30906 1.51559 6.36625L2.44559 9.71406C2.51589 9.89336 2.51589 10.0926 2.44559 10.2719L1.51465 13.6094C1.487 13.7008 1.49028 13.75 1.59762 13.75H2.43762C2.81918 13.75 2.87121 13.7003 3.06621 13.4547L4.8334 11.3125C4.87024 11.266 4.91735 11.2287 4.97103 11.2035C5.0247 11.1783 5.08349 11.1659 5.14278 11.1672L10.7997 11.2938C10.8202 11.2942 10.8404 11.2997 10.8584 11.3097C10.8764 11.3198 10.8917 11.334 10.9029 11.3513C10.9141 11.3686 10.921 11.3884 10.9228 11.4089C10.9247 11.4294 10.9215 11.4501 10.9136 11.4691L7.50012 19H8.74887C8.80977 18.9964 8.86918 18.9797 8.92299 18.951C8.97681 18.9223 9.02375 18.8822 9.06059 18.8336L15.1473 11.4531C15.1656 11.425 15.2411 11.4109 15.2734 11.4109L18.2687 11.4906C18.4234 11.5 18.9526 11.5047 19.1125 11.5047C21.1876 11.5047 22.5001 10.9342 22.5001 10C22.5001 9.06578 21.1932 8.5 19.112 8.5Z" stroke="black" stroke-width="1.5" stroke-linecap="round" stroke-linejoin="round"/>
</svg>
